<mxfile host="app.diagrams.net" modified="2022-07-14T13:21:30.976Z" agent="5.0 (Windows NT 10.0; Win64; x64) AppleWebKit/537.36 (KHTML, like Gecko) Chrome/103.0.0.0 Safari/537.36" etag="r6Y3Or5fwSXkKhbZFM62" version="18.2.0" type="github">
  <diagram name="Page-1" id="dd472eb7-4b8b-5cd9-a60b-b15522922e76">
    <mxGraphModel dx="1245" dy="1004" grid="1" gridSize="10" guides="1" tooltips="1" connect="1" arrows="1" fold="1" page="1" pageScale="1" pageWidth="1100" pageHeight="850" background="none" math="0" shadow="0">
      <root>
        <mxCell id="0" />
        <mxCell id="1" parent="0" />
        <mxCell id="jy5eFoRxvXMZ411eGV4B-6" value="" style="triangle;whiteSpace=wrap;html=1;rotation=-90;fillColor=#f8cecc;strokeColor=#b85450;gradientColor=#ffffff;gradientDirection=west;" vertex="1" parent="1">
          <mxGeometry x="380" y="240" width="212.5" height="407.5" as="geometry" />
        </mxCell>
        <mxCell id="jy5eFoRxvXMZ411eGV4B-7" value="" style="triangle;whiteSpace=wrap;html=1;rotation=34;fillColor=#dae8fc;strokeColor=#6c8ebf;gradientColor=#ffffff;gradientDirection=west;" vertex="1" parent="1">
          <mxGeometry x="269.15" y="102.8" width="240" height="340" as="geometry" />
        </mxCell>
        <mxCell id="jy5eFoRxvXMZ411eGV4B-8" value="" style="triangle;whiteSpace=wrap;html=1;rotation=140;fillColor=#d5e8d4;strokeColor=#82b366;gradientColor=#ffffff;gradientDirection=west;" vertex="1" parent="1">
          <mxGeometry x="460" y="100" width="230" height="340" as="geometry" />
        </mxCell>
        <mxCell id="jy5eFoRxvXMZ411eGV4B-10" value="&lt;b&gt;&lt;font style=&quot;font-size: 18px;&quot;&gt;Integritet&lt;/font&gt;&lt;/b&gt;" style="text;html=1;strokeColor=none;fillColor=none;align=center;verticalAlign=middle;whiteSpace=wrap;rounded=0;" vertex="1" parent="1">
          <mxGeometry x="436.25" y="520" width="100" height="30" as="geometry" />
        </mxCell>
        <mxCell id="jy5eFoRxvXMZ411eGV4B-11" value="&lt;font style=&quot;font-size: 17px;&quot;&gt;&lt;b&gt;Fortrolighed&lt;/b&gt;&lt;/font&gt;" style="text;html=1;strokeColor=none;fillColor=none;align=center;verticalAlign=middle;whiteSpace=wrap;rounded=0;rotation=-55;" vertex="1" parent="1">
          <mxGeometry x="270" y="192.5" width="60" height="30" as="geometry" />
        </mxCell>
        <mxCell id="jy5eFoRxvXMZ411eGV4B-13" value="&lt;span&gt;&lt;font style=&quot;font-size: 17px;&quot;&gt;&lt;b&gt;TilgÃ¦ngelighed&lt;/b&gt;&lt;/font&gt;&lt;/span&gt;" style="text;html=1;strokeColor=none;fillColor=none;align=center;verticalAlign=middle;whiteSpace=wrap;rounded=0;rotation=50;" vertex="1" parent="1">
          <mxGeometry x="620" y="180" width="60" height="30" as="geometry" />
        </mxCell>
        <mxCell id="jy5eFoRxvXMZ411eGV4B-16" value="" style="triangle;whiteSpace=wrap;html=1;gradientDirection=west;rotation=-90;fillColor=#fff2cc;strokeColor=#d6b656;rounded=0;sketch=1;" vertex="1" parent="1">
          <mxGeometry x="320" y="70" width="322.5" height="440" as="geometry" />
        </mxCell>
        <mxCell id="jy5eFoRxvXMZ411eGV4B-21" value="Kritisk" style="text;strokeColor=none;fillColor=none;align=left;verticalAlign=middle;spacingLeft=4;spacingRight=4;overflow=hidden;points=[[0,0.5],[1,0.5]];portConstraint=eastwest;rotatable=0;rounded=0;sketch=1;" vertex="1" parent="1">
          <mxGeometry x="460" y="420" width="80" height="30" as="geometry" />
        </mxCell>
        <mxCell id="jy5eFoRxvXMZ411eGV4B-23" value="" style="endArrow=none;html=1;rounded=0;" edge="1" parent="1">
          <mxGeometry width="50" height="50" relative="1" as="geometry">
            <mxPoint x="611.25" y="460" as="sourcePoint" />
            <mxPoint x="361.25" y="460" as="targetPoint" />
          </mxGeometry>
        </mxCell>
        <mxCell id="jy5eFoRxvXMZ411eGV4B-24" value="Ikke kritisk" style="text;html=1;strokeColor=none;fillColor=none;align=center;verticalAlign=middle;whiteSpace=wrap;rounded=0;sketch=1;" vertex="1" parent="1">
          <mxGeometry x="456.25" y="470" width="60" height="30" as="geometry" />
        </mxCell>
        <mxCell id="jy5eFoRxvXMZ411eGV4B-26" value="" style="endArrow=none;html=1;rounded=0;fontSize=18;exitX=0.633;exitY=0.682;exitDx=0;exitDy=0;exitPerimeter=0;" edge="1" parent="1" source="jy5eFoRxvXMZ411eGV4B-7">
          <mxGeometry width="50" height="50" relative="1" as="geometry">
            <mxPoint x="400" y="320" as="sourcePoint" />
            <mxPoint x="460" y="260" as="targetPoint" />
          </mxGeometry>
        </mxCell>
        <mxCell id="jy5eFoRxvXMZ411eGV4B-27" value="" style="endArrow=none;html=1;rounded=0;fontSize=18;exitX=0.633;exitY=0.682;exitDx=0;exitDy=0;exitPerimeter=0;entryX=0.5;entryY=0;entryDx=0;entryDy=0;" edge="1" parent="1" target="jy5eFoRxvXMZ411eGV4B-7">
          <mxGeometry width="50" height="50" relative="1" as="geometry">
            <mxPoint x="310.0000224491871" y="341.95028246849233" as="sourcePoint" />
            <mxPoint x="388.99" y="260" as="targetPoint" />
          </mxGeometry>
        </mxCell>
        <mxCell id="jy5eFoRxvXMZ411eGV4B-28" value="" style="endArrow=none;html=1;rounded=0;fontSize=18;exitX=0.633;exitY=0.682;exitDx=0;exitDy=0;exitPerimeter=0;entryX=0.287;entryY=0.13;entryDx=0;entryDy=0;entryPerimeter=0;" edge="1" parent="1" target="jy5eFoRxvXMZ411eGV4B-7">
          <mxGeometry width="50" height="50" relative="1" as="geometry">
            <mxPoint x="250.0000224491871" y="342.61028246849236" as="sourcePoint" />
            <mxPoint x="376.6813967950136" y="202.9918063328213" as="targetPoint" />
          </mxGeometry>
        </mxCell>
        <mxCell id="jy5eFoRxvXMZ411eGV4B-29" value="" style="endArrow=none;html=1;rounded=0;fontSize=18;exitX=0.712;exitY=0.352;exitDx=0;exitDy=0;exitPerimeter=0;" edge="1" parent="1" source="jy5eFoRxvXMZ411eGV4B-8">
          <mxGeometry width="50" height="50" relative="1" as="geometry">
            <mxPoint x="560" y="330" as="sourcePoint" />
            <mxPoint x="500" y="280" as="targetPoint" />
          </mxGeometry>
        </mxCell>
        <mxCell id="jy5eFoRxvXMZ411eGV4B-30" value="" style="endArrow=none;html=1;rounded=0;fontSize=18;exitX=0.5;exitY=0;exitDx=0;exitDy=0;" edge="1" parent="1" source="jy5eFoRxvXMZ411eGV4B-8">
          <mxGeometry width="50" height="50" relative="1" as="geometry">
            <mxPoint x="587.4227454729452" y="289.88968022606264" as="sourcePoint" />
            <mxPoint x="517.43" y="230" as="targetPoint" />
          </mxGeometry>
        </mxCell>
        <mxCell id="jy5eFoRxvXMZ411eGV4B-31" value="" style="endArrow=none;html=1;rounded=0;fontSize=18;exitX=0.276;exitY=0.127;exitDx=0;exitDy=0;entryX=0.297;entryY=0.842;entryDx=0;entryDy=0;entryPerimeter=0;exitPerimeter=0;" edge="1" parent="1" source="jy5eFoRxvXMZ411eGV4B-8" target="jy5eFoRxvXMZ411eGV4B-8">
          <mxGeometry width="50" height="50" relative="1" as="geometry">
            <mxPoint x="639.6369468233559" y="345.11377766511305" as="sourcePoint" />
            <mxPoint x="527.4299999999998" y="240" as="targetPoint" />
          </mxGeometry>
        </mxCell>
        <mxCell id="jy5eFoRxvXMZ411eGV4B-32" value="4" style="text;strokeColor=none;fillColor=none;align=left;verticalAlign=middle;spacingLeft=4;spacingRight=4;overflow=hidden;points=[[0,0.5],[1,0.5]];portConstraint=eastwest;rotatable=0;rounded=0;sketch=1;fontSize=17;" vertex="1" parent="1">
          <mxGeometry x="436.25" y="310" width="80" height="30" as="geometry" />
        </mxCell>
        <mxCell id="jy5eFoRxvXMZ411eGV4B-33" value="4" style="text;strokeColor=none;fillColor=none;align=left;verticalAlign=middle;spacingLeft=4;spacingRight=4;overflow=hidden;points=[[0,0.5],[1,0.5]];portConstraint=eastwest;rotatable=0;rounded=0;sketch=1;fontSize=17;" vertex="1" parent="1">
          <mxGeometry x="500" y="310" width="33.75" height="30" as="geometry" />
        </mxCell>
        <mxCell id="jy5eFoRxvXMZ411eGV4B-35" value="3" style="text;strokeColor=none;fillColor=none;align=left;verticalAlign=middle;spacingLeft=4;spacingRight=4;overflow=hidden;points=[[0,0.5],[1,0.5]];portConstraint=eastwest;rotatable=0;rounded=0;sketch=1;fontSize=17;" vertex="1" parent="1">
          <mxGeometry x="390" y="275" width="30" height="30" as="geometry" />
        </mxCell>
        <mxCell id="jy5eFoRxvXMZ411eGV4B-36" value="3" style="text;strokeColor=none;fillColor=none;align=left;verticalAlign=middle;spacingLeft=4;spacingRight=4;overflow=hidden;points=[[0,0.5],[1,0.5]];portConstraint=eastwest;rotatable=0;rounded=0;sketch=1;fontSize=17;" vertex="1" parent="1">
          <mxGeometry x="530" y="270" width="30" height="30" as="geometry" />
        </mxCell>
        <mxCell id="jy5eFoRxvXMZ411eGV4B-39" value="2" style="text;html=1;align=center;verticalAlign=middle;resizable=0;points=[];autosize=1;strokeColor=none;fillColor=none;fontSize=17;" vertex="1" parent="1">
          <mxGeometry x="340" y="240" width="20" height="30" as="geometry" />
        </mxCell>
        <mxCell id="jy5eFoRxvXMZ411eGV4B-40" value="2" style="text;html=1;align=center;verticalAlign=middle;resizable=0;points=[];autosize=1;strokeColor=none;fillColor=none;fontSize=17;" vertex="1" parent="1">
          <mxGeometry x="570" y="230" width="20" height="30" as="geometry" />
        </mxCell>
        <mxCell id="jy5eFoRxvXMZ411eGV4B-43" value="1" style="text;strokeColor=none;fillColor=none;align=left;verticalAlign=middle;spacingLeft=4;spacingRight=4;overflow=hidden;points=[[0,0.5],[1,0.5]];portConstraint=eastwest;rotatable=0;rounded=0;sketch=1;fontSize=17;" vertex="1" parent="1">
          <mxGeometry x="300" y="210" width="30" height="30" as="geometry" />
        </mxCell>
        <mxCell id="jy5eFoRxvXMZ411eGV4B-44" value="1" style="text;strokeColor=none;fillColor=none;align=left;verticalAlign=middle;spacingLeft=4;spacingRight=4;overflow=hidden;points=[[0,0.5],[1,0.5]];portConstraint=eastwest;rotatable=0;rounded=0;sketch=1;fontSize=17;" vertex="1" parent="1">
          <mxGeometry x="612.5" y="200" width="30" height="30" as="geometry" />
        </mxCell>
      </root>
    </mxGraphModel>
  </diagram>
</mxfile>
